<svg width="44" height="63" viewBox="0 0 44 63" fill="none" xmlns="http://www.w3.org/2000/svg">
<path d="M21.875 0C9.78125 0 0 9.78125 0 21.875C0 27.3125 1.5625 32.4062 4.40625 37C7.375 41.8125 11.2812 45.9375 14.2812 50.75C15.75 53.0938 16.8125 55.2812 17.9375 57.8125C18.75 59.5312 19.4062 62.5 21.875 62.5C24.3438 62.5 25 59.5312 25.7812 57.8125C26.9375 55.2812 27.9688 53.0938 29.4375 50.75C32.4375 45.9688 36.3438 41.8438 39.3125 37C42.1875 32.4062 43.75 27.3125 43.75 21.875C43.75 9.78125 33.9688 0 21.875 0ZM21.875 30.4688C17.5625 30.4688 14.0625 26.9688 14.0625 22.6562C14.0625 18.3438 17.5625 14.8438 21.875 14.8438C26.1875 14.8438 29.6875 18.3438 29.6875 22.6562C29.6875 26.9688 26.1875 30.4688 21.875 30.4688Z" fill="#FF376D"/>
</svg>
