<svg width="57" height="57" viewBox="0 0 57 57" fill="none" xmlns="http://www.w3.org/2000/svg">
<path d="M11.4633 24.6683C16.0233 33.63 23.37 40.945 32.3317 45.5367L39.2983 38.57C40.1533 37.715 41.42 37.43 42.5283 37.81C46.075 38.9817 49.9067 39.615 53.8333 39.615C55.575 39.615 57 41.04 57 42.7817V53.8333C57 55.575 55.575 57 53.8333 57C24.0983 57 0 32.9017 0 3.16667C0 1.425 1.425 0 3.16667 0H14.25C15.9917 0 17.4167 1.425 17.4167 3.16667C17.4167 7.125 18.05 10.925 19.2217 14.4717C19.57 15.58 19.3167 16.815 18.43 17.7017L11.4633 24.6683Z" fill="#121C4A"/>
</svg>
